<svg width="224" height="67" viewBox="0 0 224 67" fill="none" xmlns="http://www.w3.org/2000/svg">
<path d="M27.6955 3.01389C28.4874 1.18431 30.2905 0 32.2841 0H216.017C219.708 0 222.127 3.86153 220.516 7.18219L192.867 64.1822C192.031 65.9057 190.284 67 188.368 67H7.61245C4.01514 67 1.5949 63.3152 3.02384 60.0139L27.6955 3.01389Z" fill="url(#paint0_radial_122_29)"/>
<path d="M105.316 6.40625V32H100.341L92.308 15.9863V32H87.4213V6.40625H92.3256L100.429 22.5957V6.40625H105.316ZM108.656 23.1406V21.8574C108.656 20.3691 108.831 19.0508 109.183 17.9023C109.546 16.7539 110.062 15.793 110.73 15.0195C111.398 14.2344 112.201 13.6426 113.138 13.2441C114.087 12.834 115.148 12.6289 116.32 12.6289C117.503 12.6289 118.564 12.834 119.501 13.2441C120.451 13.6426 121.259 14.2344 121.927 15.0195C122.607 15.793 123.128 16.7539 123.492 17.9023C123.855 19.0508 124.037 20.3691 124.037 21.8574V23.1406C124.037 24.6172 123.855 25.9297 123.492 27.0781C123.128 28.2266 122.607 29.1934 121.927 29.9785C121.259 30.7637 120.456 31.3555 119.519 31.7539C118.581 32.1523 117.527 32.3516 116.355 32.3516C115.183 32.3516 114.122 32.1523 113.173 31.7539C112.236 31.3555 111.427 30.7637 110.747 29.9785C110.068 29.1934 109.546 28.2266 109.183 27.0781C108.831 25.9297 108.656 24.6172 108.656 23.1406ZM113.578 21.8574V23.1406C113.578 24.0195 113.636 24.7812 113.753 25.4258C113.882 26.0703 114.064 26.6035 114.298 27.0254C114.544 27.4473 114.837 27.7578 115.177 27.957C115.517 28.1562 115.91 28.2559 116.355 28.2559C116.8 28.2559 117.199 28.1562 117.55 27.957C117.902 27.7578 118.189 27.4473 118.412 27.0254C118.646 26.6035 118.816 26.0703 118.921 25.4258C119.039 24.7812 119.097 24.0195 119.097 23.1406V21.8574C119.097 21.002 119.033 20.252 118.904 19.6074C118.775 18.9512 118.593 18.418 118.359 18.0078C118.124 17.5859 117.831 17.2695 117.48 17.0586C117.14 16.8359 116.753 16.7246 116.32 16.7246C115.886 16.7246 115.499 16.8359 115.16 17.0586C114.831 17.2695 114.544 17.5859 114.298 18.0078C114.064 18.418 113.882 18.9512 113.753 19.6074C113.636 20.252 113.578 21.002 113.578 21.8574ZM135.445 12.9805V16.6895H125.742V12.9805H135.445ZM127.974 8.28711H132.878V26.1992C132.878 26.7266 132.931 27.1309 133.037 27.4121C133.142 27.6934 133.3 27.8926 133.511 28.0098C133.734 28.1152 134.027 28.168 134.39 28.168C134.636 28.168 134.865 28.1562 135.076 28.1328C135.287 28.0977 135.445 28.0625 135.55 28.0273V31.877C135.164 32.0293 134.753 32.1465 134.32 32.2285C133.898 32.3105 133.394 32.3516 132.808 32.3516C131.824 32.3516 130.968 32.1641 130.242 31.7891C129.527 31.4141 128.97 30.8164 128.572 29.9961C128.173 29.1641 127.974 28.0742 127.974 26.7266V8.28711Z" fill="white"/>
<path d="M74.5586 41.9844L70.8906 56H67.2695L72.6016 38.9375H74.8633L74.5586 41.9844ZM77.4531 56L73.7617 41.9844L73.4219 38.9375H75.7188L81.0977 56H77.4531ZM77.582 49.6367V52.4844H69.8828V49.6367H77.582ZM85.7148 53.4688L87.7539 43.3203H91.1758L87.6953 56H85.6445L85.7148 53.4688ZM84.5078 43.3203L86.582 53.4805L86.6172 56H84.5547L81.0742 43.3203H84.5078ZM98.1602 53.082V47.2227C98.1602 46.8398 98.1133 46.5352 98.0195 46.3086C97.9336 46.082 97.8008 45.918 97.6211 45.8164C97.4492 45.707 97.2383 45.6523 96.9883 45.6523C96.707 45.6523 96.4727 45.7109 96.2852 45.8281C96.0977 45.9453 95.957 46.1133 95.8633 46.332C95.7773 46.5508 95.7344 46.8125 95.7344 47.1172H92.4414C92.4414 46.5703 92.5469 46.0547 92.7578 45.5703C92.9688 45.0781 93.2773 44.6484 93.6836 44.2812C94.0977 43.9062 94.5898 43.6133 95.1602 43.4023C95.7305 43.1914 96.3711 43.0859 97.082 43.0859C97.9258 43.0859 98.6758 43.2305 99.332 43.5195C99.9883 43.8008 100.508 44.25 100.891 44.8672C101.273 45.4844 101.465 46.2852 101.465 47.2695V52.918C101.465 53.6289 101.5 54.207 101.57 54.6523C101.648 55.0977 101.762 55.4805 101.91 55.8008V56H98.6055C98.457 55.6484 98.3438 55.2109 98.2656 54.6875C98.1953 54.1562 98.1602 53.6211 98.1602 53.082ZM98.5586 48.2539L98.5703 50.2227H97.3633C97.0508 50.2227 96.7773 50.2734 96.543 50.375C96.3164 50.4766 96.125 50.6211 95.9688 50.8086C95.8125 50.9883 95.6953 51.1992 95.6172 51.4414C95.5469 51.6836 95.5117 51.9414 95.5117 52.2148C95.5117 52.5195 95.5547 52.7773 95.6406 52.9883C95.7266 53.1992 95.8555 53.3594 96.0273 53.4688C96.1992 53.5781 96.4023 53.6328 96.6367 53.6328C96.9961 53.6328 97.3086 53.5586 97.5742 53.4102C97.8398 53.2617 98.0352 53.082 98.1602 52.8711C98.293 52.6602 98.3359 52.4648 98.2891 52.2852L99.0391 53.5625C98.9453 53.8516 98.8164 54.1523 98.6523 54.4648C98.4961 54.7773 98.2969 55.0664 98.0547 55.332C97.8125 55.5977 97.5117 55.8164 97.1523 55.9883C96.8008 56.1523 96.3828 56.2344 95.8984 56.2344C95.2188 56.2344 94.5977 56.0781 94.0352 55.7656C93.4727 55.4531 93.0273 55.0156 92.6992 54.4531C92.3789 53.8906 92.2188 53.2227 92.2188 52.4492C92.2188 51.8086 92.3203 51.2305 92.5234 50.7148C92.7344 50.1914 93.0469 49.75 93.4609 49.3906C93.875 49.0234 94.3984 48.7422 95.0312 48.5469C95.6641 48.3516 96.4062 48.2539 97.2578 48.2539H98.5586ZM107.336 43.3203V56H104.043V43.3203H107.336ZM103.891 40.0391C103.891 39.5312 104.051 39.1133 104.371 38.7852C104.699 38.4492 105.137 38.2812 105.684 38.2812C106.238 38.2812 106.676 38.4492 106.996 38.7852C107.316 39.1133 107.477 39.5312 107.477 40.0391C107.477 40.5391 107.312 40.957 106.984 41.293C106.664 41.6211 106.234 41.7852 105.695 41.7852C105.141 41.7852 104.699 41.6211 104.371 41.293C104.051 40.957 103.891 40.5391 103.891 40.0391ZM113.383 38V56H110.09V38H113.383ZM121.574 53.082V47.2227C121.574 46.8398 121.527 46.5352 121.434 46.3086C121.348 46.082 121.215 45.918 121.035 45.8164C120.863 45.707 120.652 45.6523 120.402 45.6523C120.121 45.6523 119.887 45.7109 119.699 45.8281C119.512 45.9453 119.371 46.1133 119.277 46.332C119.191 46.5508 119.148 46.8125 119.148 47.1172H115.855C115.855 46.5703 115.961 46.0547 116.172 45.5703C116.383 45.0781 116.691 44.6484 117.098 44.2812C117.512 43.9062 118.004 43.6133 118.574 43.4023C119.145 43.1914 119.785 43.0859 120.496 43.0859C121.34 43.0859 122.09 43.2305 122.746 43.5195C123.402 43.8008 123.922 44.25 124.305 44.8672C124.688 45.4844 124.879 46.2852 124.879 47.2695V52.918C124.879 53.6289 124.914 54.207 124.984 54.6523C125.062 55.0977 125.176 55.4805 125.324 55.8008V56H122.02C121.871 55.6484 121.758 55.2109 121.68 54.6875C121.609 54.1562 121.574 53.6211 121.574 53.082ZM121.973 48.2539L121.984 50.2227H120.777C120.465 50.2227 120.191 50.2734 119.957 50.375C119.73 50.4766 119.539 50.6211 119.383 50.8086C119.227 50.9883 119.109 51.1992 119.031 51.4414C118.961 51.6836 118.926 51.9414 118.926 52.2148C118.926 52.5195 118.969 52.7773 119.055 52.9883C119.141 53.1992 119.27 53.3594 119.441 53.4688C119.613 53.5781 119.816 53.6328 120.051 53.6328C120.41 53.6328 120.723 53.5586 120.988 53.4102C121.254 53.2617 121.449 53.082 121.574 52.8711C121.707 52.6602 121.75 52.4648 121.703 52.2852L122.453 53.5625C122.359 53.8516 122.23 54.1523 122.066 54.4648C121.91 54.7773 121.711 55.0664 121.469 55.332C121.227 55.5977 120.926 55.8164 120.566 55.9883C120.215 56.1523 119.797 56.2344 119.312 56.2344C118.633 56.2344 118.012 56.0781 117.449 55.7656C116.887 55.4531 116.441 55.0156 116.113 54.4531C115.793 53.8906 115.633 53.2227 115.633 52.4492C115.633 51.8086 115.734 51.2305 115.938 50.7148C116.148 50.1914 116.461 49.75 116.875 49.3906C117.289 49.0234 117.812 48.7422 118.445 48.5469C119.078 48.3516 119.82 48.2539 120.672 48.2539H121.973ZM127.316 38H130.586V53.0586L130.352 56H127.316V38ZM137.172 49.2383V50.0703C137.172 51.1016 137.09 52 136.926 52.7656C136.77 53.5312 136.523 54.1719 136.188 54.6875C135.859 55.2031 135.438 55.5898 134.922 55.8477C134.406 56.1055 133.797 56.2344 133.094 56.2344C132.461 56.2344 131.918 56.0859 131.465 55.7891C131.012 55.4844 130.629 55.0664 130.316 54.5352C130.012 53.9961 129.762 53.3672 129.566 52.6484C129.379 51.9219 129.242 51.1289 129.156 50.2695V49.0391C129.234 48.1953 129.367 47.4102 129.555 46.6836C129.75 45.957 130 45.3281 130.305 44.7969C130.609 44.2578 130.988 43.8398 131.441 43.543C131.902 43.2383 132.445 43.0859 133.07 43.0859C133.789 43.0859 134.406 43.2188 134.922 43.4844C135.438 43.7422 135.859 44.1289 136.188 44.6445C136.523 45.1602 136.77 45.8047 136.926 46.5781C137.09 47.3438 137.172 48.2305 137.172 49.2383ZM133.902 50.0703V49.2383C133.902 48.6523 133.879 48.1484 133.832 47.7266C133.785 47.3047 133.699 46.9531 133.574 46.6719C133.449 46.3906 133.27 46.1797 133.035 46.0391C132.809 45.8984 132.508 45.8281 132.133 45.8281C131.797 45.8281 131.516 45.8945 131.289 46.0273C131.062 46.1523 130.867 46.3398 130.703 46.5898C130.547 46.832 130.43 47.1211 130.352 47.457C130.281 47.7852 130.242 48.1484 130.234 48.5469V50.7617C130.242 51.3008 130.309 51.7773 130.434 52.1914C130.559 52.6055 130.758 52.9258 131.031 53.1523C131.312 53.3789 131.688 53.4922 132.156 53.4922C132.523 53.4922 132.82 53.4297 133.047 53.3047C133.273 53.1797 133.449 52.9805 133.574 52.707C133.707 52.4336 133.793 52.082 133.832 51.6523C133.879 51.2148 133.902 50.6875 133.902 50.0703ZM142.633 38V56H139.34V38H142.633ZM150.344 56.2344C149.477 56.2344 148.707 56.1016 148.035 55.8359C147.371 55.5703 146.809 55.1875 146.348 54.6875C145.887 54.1797 145.535 53.5664 145.293 52.8477C145.051 52.1289 144.93 51.3086 144.93 50.3867V49.3438C144.93 48.3125 145.047 47.4102 145.281 46.6367C145.516 45.8555 145.848 45.1992 146.277 44.668C146.707 44.1367 147.234 43.7422 147.859 43.4844C148.492 43.2188 149.207 43.0859 150.004 43.0859C150.801 43.0859 151.5 43.2188 152.102 43.4844C152.711 43.7422 153.215 44.1328 153.613 44.6562C154.012 45.1719 154.312 45.8125 154.516 46.5781C154.719 47.3438 154.82 48.2344 154.82 49.25V50.75H146.324V48.4414H151.598V48.1484C151.598 47.6328 151.543 47.2031 151.434 46.8594C151.324 46.5078 151.152 46.2461 150.918 46.0742C150.684 45.9023 150.371 45.8164 149.98 45.8164C149.652 45.8164 149.375 45.8828 149.148 46.0156C148.922 46.1484 148.742 46.3555 148.609 46.6367C148.477 46.918 148.379 47.2852 148.316 47.7383C148.254 48.1836 148.223 48.7188 148.223 49.3438V50.3867C148.223 50.9727 148.273 51.4648 148.375 51.8633C148.477 52.2539 148.625 52.5742 148.82 52.8242C149.023 53.0664 149.27 53.2422 149.559 53.3516C149.848 53.4531 150.184 53.5039 150.566 53.5039C151.145 53.5039 151.664 53.4023 152.125 53.1992C152.594 52.9883 152.992 52.7031 153.32 52.3438L154.633 54.3359C154.406 54.6328 154.094 54.9297 153.695 55.2266C153.297 55.5234 152.82 55.7656 152.266 55.9531C151.711 56.1406 151.07 56.2344 150.344 56.2344Z" fill="white"/>
<defs>
<radialGradient id="paint0_radial_122_29" cx="0" cy="0" r="1" gradientUnits="userSpaceOnUse" gradientTransform="translate(239.5 -8.5) rotate(163.527) scale(193.961 648.468)">
<stop stop-color="#DB2F2F"/>
<stop offset="0.0001" stop-color="#CD220B"/>
<stop offset="1" stop-color="#D8392F"/>
</radialGradient>
</defs>
</svg>
