<svg width="353" height="449" viewBox="0 0 353 449" fill="none" xmlns="http://www.w3.org/2000/svg">
<path fill-rule="evenodd" clip-rule="evenodd" d="M36.3098 1.63467C19.4068 6.17967 6.14875 19.6267 1.68975 36.7467C-0.56325 45.3947 -0.56325 402.713 1.68975 411.361C6.20675 428.702 19.4918 442.03 36.7398 446.523C45.2548 448.741 99.1407 448.741 107.656 446.523C124.904 442.03 138.189 428.702 142.706 411.361C144.002 406.386 144.198 381.781 144.198 224.054C144.198 64.2317 144.015 41.7697 142.667 36.5957C138.174 19.3477 124.846 6.06267 107.505 1.54567C99.4068 -0.56333 44.2268 -0.49533 36.3098 1.63467ZM244.31 1.63467C227.407 6.17967 214.149 19.6267 209.69 36.7467C207.437 45.3947 207.437 402.713 209.69 411.361C214.207 428.702 227.492 442.03 244.74 446.523C253.255 448.741 307.141 448.741 315.656 446.523C332.904 442.03 346.189 428.702 350.706 411.361C352.002 406.386 352.198 381.781 352.198 224.054C352.198 64.2317 352.015 41.7697 350.667 36.5957C346.174 19.3477 332.846 6.06267 315.505 1.54567C307.407 -0.56333 252.227 -0.49533 244.31 1.63467Z" fill="white"/>
</svg>
