<svg width="31" height="31" viewBox="0 0 31 31" fill="none" xmlns="http://www.w3.org/2000/svg">
<path fill-rule="evenodd" clip-rule="evenodd" d="M3.09143 0.234652C2.63357 0.324787 2.11867 0.591775 1.76235 0.923788C1.21463 1.43421 0.888558 2.17806 0.777961 3.16967C0.69177 3.94193 0.69177 27.0886 0.777961 27.8609C0.888558 28.8525 1.21463 29.5963 1.76235 30.1067C2.7204 30.9995 4.15938 31.0857 5.74048 30.3449C6.22629 30.1173 27.9408 18.506 28.513 18.1679C28.7121 18.0502 29.0921 17.749 29.3573 17.4986C30.3771 16.5359 30.6132 15.4622 30.0438 14.3766C29.804 13.9194 29.0657 13.1893 28.513 12.8626C27.9408 12.5245 6.22629 0.91324 5.74048 0.685626C5.5006 0.573257 5.11647 0.42469 4.88686 0.355471C4.40928 0.211579 3.51449 0.151349 3.09143 0.234652Z" fill="white"/>
</svg>
