<svg width="224" height="67" viewBox="0 0 224 67" fill="none" xmlns="http://www.w3.org/2000/svg">
<path d="M27.6955 3.01389C28.4874 1.18431 30.2905 0 32.2841 0H216.017C219.708 0 222.127 3.86153 220.516 7.18219L192.867 64.1822C192.031 65.9057 190.284 67 188.368 67H7.61245C4.01514 67 1.5949 63.3152 3.02384 60.0139L27.6955 3.01389Z" fill="url(#paint0_radial_122_26)"/>
<path d="M68.793 36.9824H63.5547V32.7109H68.793C69.5195 32.7109 70.1113 32.5469 70.5684 32.2188C71.0371 31.8906 71.377 31.4395 71.5879 30.8652C71.7988 30.2793 71.9043 29.623 71.9043 28.8965C71.9043 28.1582 71.793 27.4727 71.5703 26.8398C71.3594 26.1953 71.0254 25.6738 70.5684 25.2754C70.123 24.877 69.5312 24.6777 68.793 24.6777H65.207V46H60.0742V20.4062H68.793C70.5156 20.4062 71.998 20.7695 73.2402 21.4961C74.4824 22.2227 75.4316 23.2246 76.0879 24.502C76.7559 25.7676 77.0898 27.2207 77.0898 28.8613C77.0898 30.5137 76.7559 31.9492 76.0879 33.168C75.4316 34.375 74.4824 35.3125 73.2402 35.9805C71.998 36.6484 70.5156 36.9824 68.793 36.9824ZM85.2109 31.2168V46H80.2891V26.9805H84.9297L85.2109 31.2168ZM89.6934 26.8398L89.623 31.7441C89.4004 31.6973 89.1309 31.6621 88.8145 31.6387C88.5098 31.6152 88.2402 31.6035 88.0059 31.6035C87.4551 31.6035 86.9863 31.6914 86.5996 31.8672C86.2129 32.0312 85.8906 32.2832 85.6328 32.623C85.3867 32.9512 85.1992 33.3613 85.0703 33.8535C84.9414 34.3457 84.8652 34.9023 84.8418 35.5234L83.9102 35.1719C83.9102 33.9297 84.0039 32.793 84.1914 31.7617C84.3906 30.7188 84.6836 29.8164 85.0703 29.0547C85.457 28.2812 85.9199 27.6836 86.459 27.2617C87.0098 26.8398 87.6309 26.6289 88.3223 26.6289C88.5566 26.6289 88.8027 26.6523 89.0605 26.6992C89.3301 26.7344 89.541 26.7812 89.6934 26.8398ZM99.5195 46.3516C98.2188 46.3516 97.0645 46.1523 96.0566 45.7539C95.0605 45.3555 94.2168 44.7812 93.5254 44.0312C92.834 43.2695 92.3066 42.3496 91.9434 41.2715C91.5801 40.1934 91.3984 38.9629 91.3984 37.5801V36.0156C91.3984 34.4688 91.5742 33.1152 91.9258 31.9551C92.2773 30.7832 92.7754 29.7988 93.4199 29.002C94.0645 28.2051 94.8555 27.6133 95.793 27.2266C96.7422 26.8281 97.8145 26.6289 99.0098 26.6289C100.205 26.6289 101.254 26.8281 102.156 27.2266C103.07 27.6133 103.826 28.1992 104.424 28.9844C105.021 29.7578 105.473 30.7188 105.777 31.8672C106.082 33.0156 106.234 34.3516 106.234 35.875V38.125H93.4902V34.6621H101.4V34.2227C101.4 33.4492 101.318 32.8047 101.154 32.2891C100.99 31.7617 100.732 31.3691 100.381 31.1113C100.029 30.8535 99.5605 30.7246 98.9746 30.7246C98.4824 30.7246 98.0664 30.8242 97.7266 31.0234C97.3867 31.2227 97.1172 31.5332 96.918 31.9551C96.7188 32.377 96.5723 32.9277 96.4785 33.6074C96.3848 34.2754 96.3379 35.0781 96.3379 36.0156V37.5801C96.3379 38.459 96.4141 39.1973 96.5664 39.7949C96.7188 40.3809 96.9414 40.8613 97.2344 41.2363C97.5391 41.5996 97.9082 41.8633 98.3418 42.0273C98.7754 42.1797 99.2793 42.2559 99.8535 42.2559C100.721 42.2559 101.5 42.1035 102.191 41.7988C102.895 41.4824 103.492 41.0547 103.984 40.5156L105.953 43.5039C105.613 43.9492 105.145 44.3945 104.547 44.8398C103.949 45.2852 103.234 45.6484 102.402 45.9297C101.57 46.2109 100.609 46.3516 99.5195 46.3516ZM120.156 39.2676C120.156 38.8105 120.115 38.3945 120.033 38.0195C119.951 37.6445 119.775 37.2988 119.506 36.9824C119.248 36.666 118.867 36.3496 118.363 36.0332C117.871 35.7168 117.227 35.3887 116.43 35.0488C115.48 34.6504 114.561 34.2285 113.67 33.7832C112.779 33.3262 111.977 32.7988 111.262 32.2012C110.547 31.6035 109.979 30.9004 109.557 30.0918C109.146 29.2715 108.941 28.3105 108.941 27.209C108.941 26.1309 109.135 25.1523 109.521 24.2734C109.92 23.3945 110.482 22.6445 111.209 22.0234C111.936 21.3906 112.785 20.9043 113.758 20.5645C114.742 20.2246 115.838 20.0547 117.045 20.0547C118.686 20.0547 120.104 20.3945 121.299 21.0742C122.506 21.7539 123.438 22.6855 124.094 23.8691C124.762 25.0527 125.096 26.4121 125.096 27.9473H119.963C119.963 27.2207 119.857 26.582 119.646 26.0312C119.447 25.4688 119.125 25.0293 118.68 24.7129C118.234 24.3965 117.66 24.2383 116.957 24.2383C116.301 24.2383 115.756 24.373 115.322 24.6426C114.9 24.9004 114.584 25.2578 114.373 25.7148C114.174 26.1602 114.074 26.6641 114.074 27.2266C114.074 27.6484 114.174 28.0293 114.373 28.3691C114.584 28.6973 114.871 28.9961 115.234 29.2656C115.598 29.5234 116.025 29.7754 116.518 30.0215C117.021 30.2676 117.572 30.5078 118.17 30.7422C119.33 31.1992 120.355 31.7031 121.246 32.2539C122.137 32.793 122.881 33.4023 123.479 34.082C124.076 34.75 124.527 35.5059 124.832 36.3496C125.137 37.1934 125.289 38.1543 125.289 39.2324C125.289 40.2988 125.102 41.2715 124.727 42.1504C124.363 43.0176 123.83 43.7676 123.127 44.4004C122.424 45.0215 121.574 45.502 120.578 45.8418C119.594 46.1816 118.492 46.3516 117.273 46.3516C116.09 46.3516 114.971 46.1875 113.916 45.8594C112.861 45.5195 111.93 45.0098 111.121 44.3301C110.324 43.6387 109.697 42.7656 109.24 41.7109C108.783 40.6445 108.555 39.3848 108.555 37.9316H113.705C113.705 38.7051 113.781 39.3672 113.934 39.918C114.086 40.457 114.32 40.8906 114.637 41.2188C114.953 41.5352 115.34 41.7754 115.797 41.9395C116.266 42.0918 116.799 42.168 117.396 42.168C118.076 42.168 118.615 42.0391 119.014 41.7812C119.424 41.5234 119.717 41.1777 119.893 40.7441C120.068 40.3105 120.156 39.8184 120.156 39.2676ZM136.908 41.623V32.834C136.908 32.2598 136.838 31.8027 136.697 31.4629C136.568 31.123 136.369 30.877 136.1 30.7246C135.842 30.5605 135.525 30.4785 135.15 30.4785C134.729 30.4785 134.377 30.5664 134.096 30.7422C133.814 30.918 133.604 31.1699 133.463 31.498C133.334 31.8262 133.27 32.2188 133.27 32.6758H128.33C128.33 31.8555 128.488 31.082 128.805 30.3555C129.121 29.6172 129.584 28.9727 130.193 28.4219C130.814 27.8594 131.553 27.4199 132.408 27.1035C133.264 26.7871 134.225 26.6289 135.291 26.6289C136.557 26.6289 137.682 26.8457 138.666 27.2793C139.65 27.7012 140.43 28.375 141.004 29.3008C141.578 30.2266 141.865 31.4277 141.865 32.9043V41.377C141.865 42.4434 141.918 43.3105 142.023 43.9785C142.141 44.6465 142.311 45.2207 142.533 45.7012V46H137.576C137.354 45.4727 137.184 44.8164 137.066 44.0312C136.961 43.2344 136.908 42.4316 136.908 41.623ZM137.506 34.3809L137.523 37.334H135.713C135.244 37.334 134.834 37.4102 134.482 37.5625C134.143 37.7148 133.855 37.9316 133.621 38.2129C133.387 38.4824 133.211 38.7988 133.094 39.1621C132.988 39.5254 132.936 39.9121 132.936 40.3223C132.936 40.7793 133 41.166 133.129 41.4824C133.258 41.7988 133.451 42.0391 133.709 42.2031C133.967 42.3672 134.271 42.4492 134.623 42.4492C135.162 42.4492 135.631 42.3379 136.029 42.1152C136.428 41.8926 136.721 41.623 136.908 41.3066C137.107 40.9902 137.172 40.6973 137.102 40.4277L138.227 42.3438C138.086 42.7773 137.893 43.2285 137.646 43.6973C137.412 44.166 137.113 44.5996 136.75 44.998C136.387 45.3965 135.936 45.7246 135.396 45.9824C134.869 46.2285 134.242 46.3516 133.516 46.3516C132.496 46.3516 131.564 46.1172 130.721 45.6484C129.877 45.1797 129.209 44.5234 128.717 43.6797C128.236 42.8359 127.996 41.834 127.996 40.6738C127.996 39.7129 128.148 38.8457 128.453 38.0723C128.77 37.2871 129.238 36.625 129.859 36.0859C130.48 35.5352 131.266 35.1133 132.215 34.8203C133.164 34.5273 134.277 34.3809 135.555 34.3809H137.506ZM150.672 19V46H145.732V19H150.672ZM162.238 46.3516C160.938 46.3516 159.783 46.1523 158.775 45.7539C157.779 45.3555 156.936 44.7812 156.244 44.0312C155.553 43.2695 155.025 42.3496 154.662 41.2715C154.299 40.1934 154.117 38.9629 154.117 37.5801V36.0156C154.117 34.4688 154.293 33.1152 154.645 31.9551C154.996 30.7832 155.494 29.7988 156.139 29.002C156.783 28.2051 157.574 27.6133 158.512 27.2266C159.461 26.8281 160.533 26.6289 161.729 26.6289C162.924 26.6289 163.973 26.8281 164.875 27.2266C165.789 27.6133 166.545 28.1992 167.143 28.9844C167.74 29.7578 168.191 30.7188 168.496 31.8672C168.801 33.0156 168.953 34.3516 168.953 35.875V38.125H156.209V34.6621H164.119V34.2227C164.119 33.4492 164.037 32.8047 163.873 32.2891C163.709 31.7617 163.451 31.3691 163.1 31.1113C162.748 30.8535 162.279 30.7246 161.693 30.7246C161.201 30.7246 160.785 30.8242 160.445 31.0234C160.105 31.2227 159.836 31.5332 159.637 31.9551C159.438 32.377 159.291 32.9277 159.197 33.6074C159.104 34.2754 159.057 35.0781 159.057 36.0156V37.5801C159.057 38.459 159.133 39.1973 159.285 39.7949C159.438 40.3809 159.66 40.8613 159.953 41.2363C160.258 41.5996 160.627 41.8633 161.061 42.0273C161.494 42.1797 161.998 42.2559 162.572 42.2559C163.439 42.2559 164.219 42.1035 164.91 41.7988C165.613 41.4824 166.211 41.0547 166.703 40.5156L168.672 43.5039C168.332 43.9492 167.863 44.3945 167.266 44.8398C166.668 45.2852 165.953 45.6484 165.121 45.9297C164.289 46.2109 163.328 46.3516 162.238 46.3516Z" fill="white"/>
<defs>
<radialGradient id="paint0_radial_122_26" cx="0" cy="0" r="1" gradientUnits="userSpaceOnUse" gradientTransform="translate(205 7.49997) rotate(166.402) scale(174.388 583.029)">
<stop stop-color="#CB991A"/>
<stop offset="1" stop-color="#F0B92A"/>
</radialGradient>
</defs>
</svg>
