<svg width="500" height="100" viewBox="0 0 500 100" fill="none" xmlns="http://www.w3.org/2000/svg">
<path d="M52.7865 1.5H457.005C462.873 1.5 468.069 5.29116 469.861 10.8795L492.297 80.8796C495.089 89.5919 488.59 98.5 479.441 98.5H22.7569C13.063 98.5 6.52856 88.5864 10.3504 79.6777L40.38 9.67765C42.5084 4.71629 47.3879 1.5 52.7865 1.5Z" stroke="black" stroke-width="3"/>
<path d="M175.792 74L167.104 35.12H172.192L178.336 63.776L184.192 35.12H189.136L180.544 74H175.792ZM200.038 74.384C197.862 74.384 196.182 73.968 194.998 73.136C193.814 72.272 192.982 71.024 192.502 69.392C192.054 67.728 191.83 65.696 191.83 63.296V56.96C191.83 54.496 192.07 52.448 192.55 50.816C193.03 49.184 193.862 47.952 195.046 47.12C196.262 46.288 197.926 45.872 200.038 45.872C202.374 45.872 204.086 46.352 205.174 47.312C206.294 48.272 207.03 49.664 207.382 51.488C207.734 53.28 207.91 55.44 207.91 57.968V60.224H196.966V65.792C196.966 66.912 197.062 67.824 197.254 68.528C197.478 69.232 197.814 69.76 198.262 70.112C198.742 70.432 199.35 70.592 200.086 70.592C200.854 70.592 201.43 70.416 201.814 70.064C202.23 69.68 202.502 69.152 202.63 68.48C202.79 67.776 202.87 66.96 202.87 66.032V64.352H207.862V65.408C207.862 68.192 207.27 70.384 206.086 71.984C204.902 73.584 202.886 74.384 200.038 74.384ZM196.966 57.44H202.87V54.944C202.87 53.792 202.806 52.832 202.678 52.064C202.55 51.264 202.278 50.672 201.862 50.288C201.478 49.872 200.854 49.664 199.99 49.664C199.158 49.664 198.518 49.856 198.07 50.24C197.654 50.624 197.366 51.28 197.206 52.208C197.046 53.104 196.966 54.352 196.966 55.952V57.44ZM212.705 74V46.256H217.841V50.192C218.865 48.496 219.889 47.36 220.913 46.784C221.937 46.208 222.961 45.92 223.985 45.92C224.113 45.92 224.225 45.92 224.321 45.92C224.449 45.92 224.609 45.936 224.801 45.968V51.632C224.417 51.472 223.969 51.344 223.457 51.248C222.977 51.12 222.481 51.056 221.969 51.056C221.169 51.056 220.433 51.248 219.761 51.632C219.121 51.984 218.481 52.688 217.841 53.744V74H212.705ZM239.287 74L240.007 35.12H245.335L252.199 66.656L259.111 35.12H264.391L265.111 74H260.743L260.311 45.776L253.735 74H250.663L244.135 45.776L243.703 74H239.287ZM275.631 74.384C274.543 74.384 273.583 74.08 272.751 73.472C271.919 72.832 271.263 72.032 270.783 71.072C270.303 70.08 270.063 69.04 270.063 67.952C270.063 66.224 270.351 64.768 270.927 63.584C271.503 62.4 272.287 61.408 273.279 60.608C274.303 59.776 275.471 59.056 276.783 58.448C278.127 57.84 279.535 57.248 281.007 56.672V54.704C281.007 53.584 280.943 52.656 280.815 51.92C280.687 51.184 280.415 50.64 279.999 50.288C279.615 49.904 279.023 49.712 278.223 49.712C277.519 49.712 276.943 49.872 276.495 50.192C276.079 50.512 275.775 50.976 275.583 51.584C275.391 52.16 275.295 52.848 275.295 53.648V55.04L270.207 54.848C270.271 51.776 270.975 49.52 272.319 48.08C273.663 46.608 275.743 45.872 278.559 45.872C281.311 45.872 283.263 46.624 284.415 48.128C285.567 49.632 286.143 51.808 286.143 54.656V67.328C286.143 68.192 286.159 69.024 286.191 69.824C286.255 70.624 286.319 71.376 286.383 72.08C286.479 72.752 286.559 73.392 286.623 74H281.919C281.823 73.488 281.695 72.848 281.535 72.08C281.407 71.28 281.311 70.56 281.247 69.92C280.927 71.008 280.303 72.032 279.375 72.992C278.479 73.92 277.231 74.384 275.631 74.384ZM277.647 69.968C278.159 69.968 278.639 69.824 279.087 69.536C279.535 69.248 279.935 68.928 280.287 68.576C280.639 68.192 280.879 67.888 281.007 67.664V59.792C280.207 60.24 279.455 60.688 278.751 61.136C278.047 61.584 277.423 62.064 276.879 62.576C276.367 63.056 275.951 63.616 275.631 64.256C275.343 64.864 275.199 65.568 275.199 66.368C275.199 67.488 275.407 68.368 275.823 69.008C276.239 69.648 276.847 69.968 277.647 69.968ZM297.508 74.384C295.236 74.384 293.412 73.68 292.036 72.272C290.66 70.832 289.876 68.944 289.684 66.608L293.956 65.312C294.212 67.072 294.644 68.4 295.252 69.296C295.86 70.16 296.756 70.592 297.94 70.592C298.868 70.592 299.572 70.336 300.052 69.824C300.532 69.28 300.772 68.56 300.772 67.664C300.772 66.864 300.596 66.144 300.244 65.504C299.892 64.864 299.316 64.208 298.516 63.536L293.764 59.456C292.804 58.624 291.988 57.696 291.316 56.672C290.676 55.648 290.356 54.32 290.356 52.688C290.356 51.216 290.644 49.984 291.22 48.992C291.828 47.968 292.66 47.2 293.716 46.688C294.804 46.144 296.068 45.872 297.508 45.872C299.716 45.872 301.396 46.592 302.548 48.032C303.732 49.44 304.404 51.152 304.564 53.168L301.108 54.464C300.98 53.504 300.788 52.672 300.532 51.968C300.276 51.232 299.924 50.672 299.476 50.288C299.028 49.872 298.436 49.664 297.7 49.664C296.868 49.664 296.196 49.952 295.684 50.528C295.204 51.072 294.964 51.728 294.964 52.496C294.964 52.976 295.06 53.456 295.252 53.936C295.476 54.384 295.844 54.832 296.356 55.28L301.252 59.792C301.924 60.4 302.548 61.056 303.124 61.76C303.732 62.464 304.228 63.264 304.612 64.16C304.996 65.056 305.188 66.096 305.188 67.28C305.188 68.848 304.868 70.16 304.228 71.216C303.588 72.272 302.692 73.072 301.54 73.616C300.388 74.128 299.044 74.384 297.508 74.384Z" fill="black"/>
<path d="M333.939 79.0707C334.525 79.6565 335.475 79.6565 336.061 79.0707L345.607 69.5247C346.192 68.9389 346.192 67.9892 345.607 67.4034C345.021 66.8176 344.071 66.8176 343.485 67.4034L335 75.8887L326.515 67.4034C325.929 66.8176 324.979 66.8176 324.393 67.4034C323.808 67.9892 323.808 68.9389 324.393 69.5247L333.939 79.0707ZM336.061 26.9394C335.475 26.3536 334.525 26.3536 333.939 26.9394L324.393 36.4853C323.808 37.0711 323.808 38.0208 324.393 38.6066C324.979 39.1924 325.929 39.1924 326.515 38.6066L335 30.1213L343.485 38.6066C344.071 39.1924 345.021 39.1924 345.607 38.6066C346.192 38.0208 346.192 37.0711 345.607 36.4853L336.061 26.9394ZM336.5 78.01V28H333.5V78.01H336.5Z" fill="black"/>
</svg>
