<svg width="30" height="30" viewBox="0 0 30 30" fill="none" xmlns="http://www.w3.org/2000/svg">
<path fill-rule="evenodd" clip-rule="evenodd" d="M13.8725 0.0174489C13.7596 0.0305843 13.4163 0.069932 13.1098 0.10494C8.46701 0.634814 4.17741 3.54326 1.82341 7.75744C0.96372 9.2964 0.340426 11.2086 0.0758655 13.1186C-0.0252885 13.8489 -0.0252885 16.1413 0.0758655 16.8716C0.694465 21.3374 3.07909 25.1332 6.80231 27.5783C10.3767 29.9258 14.8842 30.6102 19.0652 29.4402C24.5158 27.915 28.7224 23.3239 29.7405 17.7893C30.6523 12.8324 29.1351 7.9224 25.5996 4.38897C23.2632 2.05385 20.4418 0.640209 17.0996 0.130038C16.5147 0.0407291 14.329 -0.0355033 13.8725 0.0174489ZM16.1901 1.80164C19.1118 2.06927 21.9251 3.34177 24.0988 5.37882C25.8772 7.04549 27.2802 9.45508 27.8569 11.8332C28.1433 13.0145 28.2145 13.6441 28.2145 14.9951C28.2145 16.3462 28.1433 16.9757 27.8569 18.157C27.3951 20.0612 26.4105 21.9848 25.0929 23.5566C23.3514 25.634 20.7973 27.2164 18.151 27.8573C16.969 28.1435 16.3392 28.2147 14.9873 28.2147C13.6344 28.2147 13.0064 28.1436 11.8189 27.8562C9.49615 27.2939 7.06611 25.8946 5.4416 24.1838C2.76812 21.3683 1.43822 17.588 1.78627 13.793C2.09988 10.3732 3.81023 7.089 6.42093 4.89333C9.14352 2.6036 12.6906 1.48105 16.1901 1.80164ZM10.5306 9.01874C9.10515 9.09603 7.80933 9.25089 6.36226 9.517C5.43597 9.68735 5.31451 9.72911 5.10294 9.94977C4.67995 10.391 4.89329 11.19 5.48103 11.3661C5.67055 11.4228 5.83395 11.409 6.51821 11.2784C8.52375 10.8956 10.082 10.7521 12.2297 10.7526C14.2618 10.753 15.6991 10.8775 17.5983 11.2177C19.5109 11.5603 21.8234 12.2467 23.6879 13.0251C24.1973 13.2378 24.6934 13.4118 24.7903 13.4118C25.0913 13.4118 25.4055 13.2089 25.5425 12.9262C25.6976 12.6058 25.6976 12.4586 25.5423 12.1379C25.3996 11.8432 25.2194 11.7389 24.0046 11.2474C19.8344 9.56005 15.0731 8.77245 10.5306 9.01874ZM10.5574 13.4736C8.99191 13.5757 6.49591 13.9545 6.12463 14.1464C5.82339 14.3021 5.65817 14.5638 5.65817 14.8852C5.65817 15.2263 5.76812 15.4687 5.99466 15.627C6.27207 15.8208 6.44628 15.8268 7.25005 15.6702C11.5926 14.824 16.0953 15.1083 20.2387 16.4905C20.755 16.6627 21.4679 16.9273 21.8229 17.0786C22.9636 17.5645 23.2217 17.5827 23.6008 17.2038C23.9504 16.8544 23.9256 16.3028 23.5446 15.954C23.1174 15.5629 20.1293 14.5261 18.1766 14.0914C15.7474 13.5506 12.9083 13.3204 10.5574 13.4736ZM10.5868 18.079C10.4738 18.0916 10.091 18.1314 9.73601 18.1673C9.0365 18.2383 8.05623 18.3964 7.3691 18.5492C6.8611 18.6621 6.57524 18.8751 6.47274 19.217C6.37669 19.5373 6.45038 19.8291 6.6869 20.0656C6.97892 20.3574 7.17794 20.3749 8.11602 20.191C8.55525 20.1049 9.21821 19.9944 9.58932 19.9455C10.5507 19.8189 12.912 19.7715 13.9419 19.8583C16.0869 20.039 18.2749 20.5713 20.2013 21.3812C20.6126 21.554 21.0017 21.6801 21.1241 21.6801C22.0276 21.6801 22.3182 20.5041 21.5262 20.0531C20.7541 19.6133 18.4166 18.8376 16.9034 18.519C15.3123 18.1839 14.4357 18.095 12.523 18.0746C11.571 18.0644 10.6997 18.0664 10.5868 18.079Z" fill="white"/>
</svg>
