<svg width="224" height="67" viewBox="0 0 224 67" fill="none" xmlns="http://www.w3.org/2000/svg">
<path d="M27.6955 3.01389C28.4874 1.18431 30.2905 0 32.2841 0H216.017C219.708 0 222.127 3.86153 220.516 7.18219L192.867 64.1822C192.031 65.9057 190.284 67 188.368 67H7.61245C4.01514 67 1.5949 63.3152 3.02384 60.0139L27.6955 3.01389Z" fill="url(#paint0_radial_121_25)"/>
<path d="M70.2695 21.4062V47H65.1543V21.4062H70.2695ZM76.6328 21.4062V25.6777H58.9141V21.4062H76.6328ZM84.543 27.9805V47H79.6035V27.9805H84.543ZM79.375 23.0586C79.375 22.2969 79.6152 21.6699 80.0957 21.1777C80.5879 20.6738 81.2441 20.4219 82.0645 20.4219C82.8965 20.4219 83.5527 20.6738 84.0332 21.1777C84.5137 21.6699 84.7539 22.2969 84.7539 23.0586C84.7539 23.8086 84.5078 24.4355 84.0156 24.9395C83.5352 25.4316 82.8906 25.6777 82.082 25.6777C81.25 25.6777 80.5879 25.4316 80.0957 24.9395C79.6152 24.4355 79.375 23.8086 79.375 23.0586ZM95.3184 43.2559C95.7754 43.2559 96.168 43.1621 96.4961 42.9746C96.8359 42.7871 97.0938 42.4824 97.2695 42.0605C97.4453 41.6387 97.5391 41.0938 97.5508 40.4258H102.174C102.174 41.8555 101.869 43.0918 101.26 44.1348C100.662 45.166 99.8535 45.9629 98.834 46.5254C97.8262 47.0762 96.6836 47.3516 95.4062 47.3516C94.1289 47.3516 93.0156 47.1465 92.0664 46.7363C91.1172 46.3262 90.332 45.7285 89.7109 44.9434C89.1016 44.1582 88.6387 43.2031 88.3223 42.0781C88.0176 40.9414 87.8652 39.6406 87.8652 38.1758V36.7871C87.8652 35.3457 88.0176 34.0566 88.3223 32.9199C88.6387 31.7832 89.1016 30.8223 89.7109 30.0371C90.332 29.252 91.1113 28.6543 92.0488 28.2441C92.998 27.834 94.1113 27.6289 95.3887 27.6289C96.7598 27.6289 97.9492 27.916 98.957 28.4902C99.9648 29.0527 100.75 29.8848 101.312 30.9863C101.887 32.0879 102.174 33.4473 102.174 35.0645H97.5508C97.5391 34.3379 97.4512 33.7344 97.2871 33.2539C97.1348 32.7617 96.8945 32.3867 96.5664 32.1289C96.25 31.8594 95.8281 31.7246 95.3008 31.7246C94.75 31.7246 94.3047 31.8418 93.9648 32.0762C93.6367 32.2988 93.3848 32.627 93.209 33.0605C93.0449 33.4824 92.9336 34.0098 92.875 34.6426C92.8164 35.2754 92.7871 35.9902 92.7871 36.7871V38.1758C92.7871 39.0312 92.8105 39.7754 92.8574 40.4082C92.916 41.0293 93.0273 41.5566 93.1914 41.9902C93.3672 42.4121 93.6191 42.7285 93.9473 42.9395C94.2871 43.1504 94.7441 43.2559 95.3184 43.2559ZM109.926 19.9824V47H105.004V19.9824H109.926ZM119.928 27.9805L113.23 37.4375L109.205 41.9551L107.465 38.2109L110.559 33.6934L114.057 27.9805H119.928ZM114.795 47L110.646 38.2637L114.039 35.1348L120.438 47H114.795ZM129.543 47.3516C128.242 47.3516 127.088 47.1523 126.08 46.7539C125.084 46.3555 124.24 45.7812 123.549 45.0312C122.857 44.2695 122.33 43.3496 121.967 42.2715C121.604 41.1934 121.422 39.9629 121.422 38.5801V37.0156C121.422 35.4688 121.598 34.1152 121.949 32.9551C122.301 31.7832 122.799 30.7988 123.443 30.002C124.088 29.2051 124.879 28.6133 125.816 28.2266C126.766 27.8281 127.838 27.6289 129.033 27.6289C130.229 27.6289 131.277 27.8281 132.18 28.2266C133.094 28.6133 133.85 29.1992 134.447 29.9844C135.045 30.7578 135.496 31.7188 135.801 32.8672C136.105 34.0156 136.258 35.3516 136.258 36.875V39.125H123.514V35.6621H131.424V35.2227C131.424 34.4492 131.342 33.8047 131.178 33.2891C131.014 32.7617 130.756 32.3691 130.404 32.1113C130.053 31.8535 129.584 31.7246 128.998 31.7246C128.506 31.7246 128.09 31.8242 127.75 32.0234C127.41 32.2227 127.141 32.5332 126.941 32.9551C126.742 33.377 126.596 33.9277 126.502 34.6074C126.408 35.2754 126.361 36.0781 126.361 37.0156V38.5801C126.361 39.459 126.438 40.1973 126.59 40.7949C126.742 41.3809 126.965 41.8613 127.258 42.2363C127.562 42.5996 127.932 42.8633 128.365 43.0273C128.799 43.1797 129.303 43.2559 129.877 43.2559C130.744 43.2559 131.523 43.1035 132.215 42.7988C132.918 42.4824 133.516 42.0547 134.008 41.5156L135.977 44.5039C135.637 44.9492 135.168 45.3945 134.57 45.8398C133.973 46.2852 133.258 46.6484 132.426 46.9297C131.594 47.2109 130.633 47.3516 129.543 47.3516ZM147.402 27.9805V31.6895H137.699V27.9805H147.402ZM139.932 23.2871H144.836V41.1992C144.836 41.7266 144.889 42.1309 144.994 42.4121C145.1 42.6934 145.258 42.8926 145.469 43.0098C145.691 43.1152 145.984 43.168 146.348 43.168C146.594 43.168 146.822 43.1562 147.033 43.1328C147.244 43.0977 147.402 43.0625 147.508 43.0273V46.877C147.121 47.0293 146.711 47.1465 146.277 47.2285C145.855 47.3105 145.352 47.3516 144.766 47.3516C143.781 47.3516 142.926 47.1641 142.199 46.7891C141.484 46.4141 140.928 45.8164 140.529 44.9961C140.131 44.1641 139.932 43.0742 139.932 41.7266V23.2871ZM158.582 41.8672C158.582 41.5391 158.471 41.2461 158.248 40.9883C158.025 40.7305 157.674 40.4668 157.193 40.1973C156.713 39.916 156.074 39.6055 155.277 39.2656C154.41 38.9141 153.643 38.5508 152.975 38.1758C152.307 37.8008 151.738 37.3848 151.27 36.9277C150.812 36.4707 150.467 35.9492 150.232 35.3633C149.998 34.7773 149.881 34.1094 149.881 33.3594C149.881 32.5508 150.027 31.8066 150.32 31.127C150.625 30.4355 151.059 29.832 151.621 29.3164C152.184 28.7891 152.869 28.3789 153.678 28.0859C154.498 27.7812 155.418 27.6289 156.438 27.6289C157.867 27.6289 159.092 27.8809 160.111 28.3848C161.143 28.877 161.934 29.5684 162.484 30.459C163.035 31.3496 163.311 32.3867 163.311 33.5703H158.389C158.389 33.1484 158.324 32.7734 158.195 32.4453C158.066 32.1055 157.855 31.8418 157.562 31.6543C157.281 31.4668 156.9 31.373 156.42 31.373C156.068 31.373 155.752 31.4492 155.471 31.6016C155.201 31.7539 154.984 31.959 154.82 32.2168C154.668 32.4629 154.592 32.7559 154.592 33.0957C154.592 33.3535 154.645 33.582 154.75 33.7812C154.867 33.9805 155.049 34.1738 155.295 34.3613C155.541 34.5488 155.869 34.748 156.279 34.959C156.701 35.1582 157.217 35.3809 157.826 35.627C159.092 36.0957 160.129 36.5996 160.938 37.1387C161.758 37.6777 162.367 38.3105 162.766 39.0371C163.164 39.752 163.363 40.6367 163.363 41.6914C163.363 42.5352 163.199 43.3027 162.871 43.9941C162.555 44.6855 162.092 45.2832 161.482 45.7871C160.873 46.291 160.141 46.6777 159.285 46.9473C158.441 47.2168 157.498 47.3516 156.455 47.3516C154.92 47.3516 153.625 47.0469 152.57 46.4375C151.516 45.8281 150.719 45.0488 150.18 44.0996C149.641 43.1387 149.371 42.1426 149.371 41.1113H154.047C154.07 41.7441 154.188 42.2422 154.398 42.6055C154.621 42.957 154.92 43.2031 155.295 43.3438C155.67 43.4844 156.086 43.5547 156.543 43.5547C157 43.5547 157.375 43.4961 157.668 43.3789C157.973 43.25 158.201 43.0566 158.354 42.7988C158.506 42.5293 158.582 42.2188 158.582 41.8672Z" fill="white"/>
<defs>
<radialGradient id="paint0_radial_121_25" cx="0" cy="0" r="1" gradientUnits="userSpaceOnUse" gradientTransform="translate(224 1.05216e-05) rotate(165.059) scale(191.991 641.88)">
<stop stop-color="#1E9484"/>
<stop offset="1" stop-color="#27C5B0"/>
</radialGradient>
</defs>
</svg>
